<svg width="16" height="16" viewBox="0 0 16 16" fill="none" xmlns="http://www.w3.org/2000/svg">
<path d="M14.667 7.66634V9.73301C14.667 11.2265 14.667 11.9732 14.3763 12.5436C14.1206 13.0454 13.7127 13.4534 13.2109 13.709C12.6405 13.9997 11.8938 13.9997 10.4003 13.9997H5.60029C4.10681 13.9997 3.36008 13.9997 2.78964 13.709C2.28788 13.4534 1.87993 13.0454 1.62427 12.5436C1.33362 11.9732 1.33362 11.2265 1.33362 9.73301V6.26634C1.33362 4.77287 1.33362 4.02613 1.62427 3.4557C1.87993 2.95393 2.28788 2.54599 2.78964 2.29032C3.36008 1.99967 4.10681 1.99967 5.60029 1.99967H8.33362M12.667 5.33301V1.33301M10.667 3.33301H14.667M10.667 7.99967C10.667 9.47243 9.47305 10.6663 8.00029 10.6663C6.52753 10.6663 5.33362 9.47243 5.33362 7.99967C5.33362 6.52692 6.52753 5.33301 8.00029 5.33301C9.47305 5.33301 10.667 6.52692 10.667 7.99967Z" stroke="#3B3B3B" stroke-linecap="round" stroke-linejoin="round"/>
</svg>
