<svg width="16" height="16" viewBox="0 0 16 16" fill="none" xmlns="http://www.w3.org/2000/svg">
<path d="M9.33324 3.70703C10.5838 4.00764 11.697 4.72002 12.4938 5.72965C13.2906 6.73928 13.7248 7.98751 13.7266 9.2737V10.547M2.27324 10.547V9.2737C2.27146 7.9866 2.70434 6.7366 3.50173 5.72625C4.29911 4.7159 5.4143 4.0044 6.66658 3.70703" stroke="#3B3B3B" stroke-width="1.5" stroke-miterlimit="10"/>
<path d="M13.7267 10.5469H2.27333C1.57009 10.5469 1 11.117 1 11.8202C1 12.5235 1.57009 13.0935 2.27333 13.0935H13.7267C14.4299 13.0935 15 12.5235 15 11.8202C15 11.117 14.4299 10.5469 13.7267 10.5469Z" stroke="#3B3B3B" stroke-width="1.5" stroke-miterlimit="10"/>
<path d="M9.90669 10.5462H6.09335L6.66585 3.64016C6.70023 3.22538 7.04691 2.90625 7.46311 2.90625H8.53693C8.95313 2.90625 9.29981 3.22538 9.33419 3.64016L9.90669 10.5462Z" stroke="#3B3B3B" stroke-width="1.5" stroke-miterlimit="10"/>
</svg>
