<svg width="20" height="20" viewBox="0 0 20 20" fill="none" xmlns="http://www.w3.org/2000/svg">
<path d="M4.08602 7.15615C4.22664 6.85928 4.3907 6.57803 4.5782 6.30459L4.54695 4.27334C4.54695 4.08584 4.62508 3.90616 4.77352 3.78116C5.50008 3.17178 6.3282 2.67959 7.24227 2.35147C7.42195 2.28897 7.61727 2.30459 7.77352 2.40615L9.5157 3.45303C9.84383 3.42959 10.172 3.42959 10.5001 3.45303L12.2423 2.40615C12.4063 2.3124 12.6016 2.28897 12.7813 2.35147C13.672 2.67178 14.5079 3.14834 15.2501 3.77334C15.3907 3.89053 15.4766 4.07803 15.4688 4.26553L15.4376 6.29678C15.6251 6.57022 15.7891 6.85147 15.9298 7.14834L17.7032 8.13272C17.8673 8.22647 17.9845 8.38272 18.0157 8.57022C18.1798 9.4999 18.1876 10.4687 18.0157 11.414C17.9845 11.6015 17.8673 11.7577 17.7032 11.8515L15.9298 12.8358C15.7891 13.1327 15.6251 13.414 15.4376 13.6874L15.4688 15.7187C15.4688 15.9062 15.3907 16.0858 15.2423 16.2108C14.5157 16.8202 13.6876 17.3124 12.7735 17.6405C12.5938 17.703 12.3985 17.6874 12.2423 17.5858L10.5001 16.539C10.172 16.5624 9.84383 16.5624 9.5157 16.539L7.77352 17.5858C7.60945 17.6796 7.41414 17.703 7.23445 17.6405C6.34383 17.3202 5.50789 16.8437 4.7657 16.2187C4.62508 16.1015 4.53914 15.914 4.54695 15.7265L4.5782 13.6952C4.3907 13.4218 4.22664 13.1405 4.08602 12.8437L2.31258 11.8593C2.14852 11.7655 2.03133 11.6093 2.00008 11.4218C1.83602 10.4921 1.8282 9.52334 2.00008 8.57803C2.03133 8.39053 2.14852 8.23428 2.31258 8.14053L4.08602 7.15615Z" stroke="white" stroke-opacity="0.95" stroke-width="1.5" stroke-miterlimit="10" stroke-linecap="round" stroke-linejoin="round"/>
<path d="M10 13.75C12.0711 13.75 13.75 12.0711 13.75 10C13.75 7.92893 12.0711 6.25 10 6.25C7.92893 6.25 6.25 7.92893 6.25 10C6.25 12.0711 7.92893 13.75 10 13.75Z" stroke="white" stroke-opacity="0.95" stroke-width="1.5" stroke-miterlimit="10" stroke-linecap="round" stroke-linejoin="round"/>
</svg>
